<?xml version="1.0" standalone="no"?>
<!DOCTYPE svg PUBLIC "-//W3C//DTD SVG 20010904//EN"
 "http://www.w3.org/TR/2001/REC-SVG-20010904/DTD/svg10.dtd">
<svg version="1.0" xmlns="http://www.w3.org/2000/svg"
 width="144.000000pt" height="144.000000pt" viewBox="0 0 144.000000 144.000000"
 preserveAspectRatio="xMidYMid meet">
<metadata>
Created by potrace 1.11, written by Peter Selinger 2001-2013
</metadata>
<g transform="translate(0.000000,144.000000) scale(0.100000,-0.100000)"
fill="#000000" stroke="none">
<path d="M663 1310 c-12 -5 -134 -122 -272 -260 -201 -201 -253 -259 -262
-290 -24 -78 -12 -94 251 -359 132 -132 254 -250 272 -261 39 -23 76 -25 121
-6 18 8 143 126 278 262 232 234 269 280 263 322 -1 6 -2 23 -3 36 0 13 -9 34
-19 46 l-18 22 -239 -242 c-243 -245 -289 -282 -343 -272 -18 3 -86 64 -214
191 l-188 187 0 48 c0 45 4 52 63 113 117 122 150 122 277 -3 l86 -83 154 154
155 155 -110 111 c-133 134 -180 158 -252 129z"/>
<path d="M942 891 l-228 -230 -100 100 c-54 54 -107 102 -118 105 -13 5 -35
-10 -81 -56 -35 -34 -62 -69 -61 -77 4 -23 339 -353 359 -353 22 0 607 585
607 607 0 22 -110 133 -131 133 -11 0 -114 -96 -247 -229z"/>
</g>
</svg>
